<?xml version="1.0" standalone="no"?>
<!DOCTYPE svg PUBLIC "-//W3C//DTD SVG 20010904//EN"
 "http://www.w3.org/TR/2001/REC-SVG-20010904/DTD/svg10.dtd">
<svg version="1.0" xmlns="http://www.w3.org/2000/svg"
 width="148.000000pt" height="148.000000pt" viewBox="0 0 148.000000 148.000000"
 preserveAspectRatio="xMidYMid meet">
<metadata>
Created by potrace 1.11, written by Peter Selinger 2001-2013
</metadata>
<g transform="translate(0.000000,148.000000) scale(0.100000,-0.100000)"
fill="#000000" stroke="none">
<path d="M572 1445 c-175 -45 -308 -133 -411 -275 -104 -142 -148 -292 -138
-470 15 -264 164 -487 402 -605 119 -58 224 -80 360 -72 186 10 343 81 476
218 95 96 169 237 193 364 14 74 15 252 2 273 -3 5 -8 24 -11 42 -9 52 -57
160 -100 224 -167 252 -481 374 -773 301z"/>
</g>
</svg>
